<svg width="96" height="96" xmlns="http://www.w3.org/2000/svg" xmlns:xlink="http://www.w3.org/1999/xlink" xml:space="preserve" overflow="hidden"><g transform="translate(-124 -98)"><path d="M151 130C151 131.105 150.105 132 149 132 147.895 132 147 131.105 147 130 147 128.895 147.895 128 149 128 150.105 128 151 128.895 151 130Z" fill="#C04F15"/><path d="M151 138C151 139.105 150.105 140 149 140 147.895 140 147 139.105 147 138 147 136.895 147.895 136 149 136 150.105 136 151 136.895 151 138Z" fill="#C04F15"/><path d="M147 134C147 135.105 146.105 136 145 136 143.895 136 143 135.105 143 134 143 132.895 143.895 132 145 132 146.105 132 147 132.895 147 134Z" fill="#C04F15"/><path d="M155 134C155 135.105 154.105 136 153 136 151.895 136 151 135.105 151 134 151 132.895 151.895 132 153 132 154.105 132 155 132.895 155 134Z" fill="#C04F15"/><path d="M179 126C179 127.105 178.105 128 177 128 175.895 128 175 127.105 175 126 175 124.895 175.895 124 177 124 178.105 124 179 124.895 179 126Z" fill="#C04F15"/><path d="M179 134C179 135.105 178.105 136 177 136 175.895 136 175 135.105 175 134 175 132.895 175.895 132 177 132 178.105 132 179 132.895 179 134Z" fill="#C04F15"/><path d="M175 130C175 131.105 174.105 132 173 132 171.895 132 171 131.105 171 130 171 128.895 171.895 128 173 128 174.105 128 175 128.895 175 130Z" fill="#C04F15"/><path d="M183 130C183 131.105 182.105 132 181 132 179.895 132 179 131.105 179 130 179 128.895 179.895 128 181 128 182.105 128 183 128.895 183 130Z" fill="#C04F15"/><path d="M206 143 200 149 192 149 192 171 200 171 206 177 212 177 212 143Z" fill="#C04F15"/><path d="M177 139C172 139 168 135 168 130 168 125 172 121 177 121 182 121 186 125 186 130 186 135 182 139 177 139ZM180 171C178.9 171 178 170.1 178 169 178 167.9 178.9 167 180 167 181.1 167 182 167.9 182 169 182 170.1 181.1 171 180 171ZM161 143C162.3 141.2 163.3 139.2 163.7 136.9 165 139.4 167.1 141.5 169.5 143L161 143ZM149 143C144 143 140 139 140 134 140 129 144 125 149 125 154 125 158 129 158 134 158 139 154 143 149 143ZM184.4 143C188.9 140.4 192 135.6 192 130 192 121.7 185.3 115 177 115 169.7 115 163.7 120.2 162.3 127.1 159.8 122.3 154.8 119 149 119 140.7 119 134 125.7 134 134 134 138.9 136.4 143.2 140 146L140 149 138 149 136 147 132 147 132 157 136 157 138 155 140 155 140 173C140 175.2 141.8 177 144 177L184 177C186.2 177 188 175.2 188 173L188 147C188 144.9 186.4 143.2 184.4 143Z" fill="#C04F15"/></g></svg>